<svg width="548" height="184" viewBox="0 0 548 184" fill="none" xmlns="http://www.w3.org/2000/svg">
<rect x="162" y="109" width="376.806" height="29.0909" fill="url(#paint0_linear)"/>
<path d="M100.127 171.168C148.516 171.168 187.743 136.725 187.743 94.2364C187.743 51.7481 148.516 17.3046 100.127 17.3046C51.7375 17.3046 12.5103 51.7481 12.5103 94.2364C12.5103 136.725 51.7375 171.168 100.127 171.168Z" fill="#8FE3F9"/>
<path d="M100.127 171.168C148.516 171.168 187.743 136.725 187.743 94.2364C187.743 51.7481 148.516 17.3046 100.127 17.3046C51.7375 17.3046 12.5103 51.7481 12.5103 94.2364C12.5103 136.725 51.7375 171.168 100.127 171.168Z" fill="#8FE3F9"/>
<path d="M102.432 169.673C122.454 169.673 140.899 163.953 155.656 154.346L151.621 145.113C143.166 125.712 123.107 113.039 100.857 113.039C78.6069 113.039 58.5473 125.712 50.0931 145.113L46.7883 152.739C61.8906 163.318 81.2969 169.673 102.432 169.673Z" fill="#B2EBF9"/>
<path d="M100.088 87.8067L83.3336 111.731L95.9765 128.104C98.0516 130.796 102.24 130.796 104.315 128.104L116.843 111.731L100.088 87.8067Z" fill="#A4E0EA"/>
<path d="M100.127 162.197C53.4364 162.197 15.3155 130.16 12.664 89.7505C12.5487 91.2458 12.5103 92.7411 12.5103 94.2364C12.5103 136.702 51.7455 171.168 100.127 171.168C148.508 171.168 187.743 136.74 187.743 94.2364C187.743 92.7411 187.705 91.2458 187.589 89.7505C184.938 130.16 146.779 162.197 100.127 162.197Z" fill="#7AD1E5"/>
<path d="M152.697 146.795C138.055 156.44 119.84 162.197 100.127 162.197C80.9126 162.197 63.1587 156.776 48.7481 147.58L46.8267 152.178C61.9675 163.094 81.3353 169.673 102.471 169.673C121.57 169.673 139.247 164.29 153.657 155.169C154.349 154.72 155.002 154.234 155.694 153.748L152.697 146.795Z" fill="#A4E0EA"/>
<path d="M10.3583 94.498C12.8177 99.3951 16.1225 103.956 20.2728 108.03C40.3708 127.581 72.9964 127.581 93.0944 108.03C109.926 91.657 112.654 66.7981 101.356 47.6586" fill="#7AD1E5"/>
<path d="M187.436 100.33C178.213 113.824 162.457 122.684 144.55 122.684C116.113 122.684 93.0559 100.255 93.0559 72.5923C93.0559 60.2563 97.6289 48.967 105.238 40.2196" fill="#7AD1E5"/>
<path d="M100.127 171.168C148.516 171.168 187.743 136.725 187.743 94.2364C187.743 51.7481 148.516 17.3046 100.127 17.3046C51.7375 17.3046 12.5103 51.7481 12.5103 94.2364C12.5103 136.725 51.7375 171.168 100.127 171.168Z" stroke="#413D51" stroke-width="16" stroke-miterlimit="10" stroke-linecap="round" stroke-linejoin="round"/>
<path d="M100.088 77.3398L83.3336 101.264L100.165 123.058L116.881 101.264L100.088 77.3398Z" fill="#413D51"/>
<path d="M100.088 77.3398L83.3336 101.264L100.165 123.058L116.881 101.264L100.088 77.3398Z" stroke="#413D51" stroke-width="16" stroke-miterlimit="10" stroke-linecap="round" stroke-linejoin="round"/>
<path d="M138.132 25.6034C126.604 20.3699 113.5 17.4167 99.704 17.4167C85.9083 17.4167 72.8042 20.3699 61.2758 25.6034V77.9753H138.132V25.6034Z" fill="#413D51"/>
<path d="M143.051 30.8368L184.823 29.6032C178.789 44.2943 177.982 66.3869 183.247 90.5356C176.561 104.292 162.342 114.049 145.626 114.535C121.877 115.245 102.01 97.0774 101.318 73.9381C100.588 50.8361 119.264 31.5471 143.051 30.8368Z" fill="#413D51"/>
<path d="M143.051 30.8368L184.823 29.6032C178.789 44.2943 177.982 66.3869 183.247 90.5356C176.561 104.292 162.342 114.049 145.626 114.535C121.877 115.245 102.01 97.0774 101.318 73.9381C100.588 50.8361 119.264 31.5471 143.051 30.8368Z" stroke="#413D51" stroke-width="16" stroke-miterlimit="10" stroke-linecap="round" stroke-linejoin="round"/>
<path d="M144.55 114.497C168.32 114.497 187.59 95.7526 187.59 72.6297C187.59 49.5068 168.32 30.762 144.55 30.762C120.78 30.762 101.51 49.5068 101.51 72.6297C101.51 95.7526 120.78 114.497 144.55 114.497Z" fill="#F7E8AD"/>
<path d="M144.55 114.497C168.32 114.497 187.59 95.7526 187.59 72.6297C187.59 49.5068 168.32 30.762 144.55 30.762C120.78 30.762 101.51 49.5068 101.51 72.6297C101.51 95.7526 120.78 114.497 144.55 114.497Z" fill="#F7E8AD"/>
<path d="M174.985 43.0233C166.723 34.9862 155.886 30.9116 145.049 30.762C153.196 32.2947 160.997 36.1076 167.299 42.2756C184.093 58.6115 184.093 85.1152 167.299 101.488C158.768 109.787 147.547 113.862 136.403 113.75C149.968 116.292 164.494 112.441 174.985 102.236C191.778 85.8628 191.778 59.3591 174.985 43.0233Z" fill="#F7D6A1"/>
<path opacity="0.7" d="M157.328 94.9746C169.943 82.7215 169.87 62.7843 157.165 50.4437C144.46 38.1031 123.933 38.0321 111.318 50.2852C98.7031 62.5383 98.7762 82.4755 111.481 94.8161C124.187 107.157 144.713 107.228 157.328 94.9746Z" fill="white"/>
<path d="M180.672 52.78C179.481 51.2847 177.175 47.1727 175.754 45.7896C158.845 29.5659 131.599 29.7154 114.922 46.2008C111.617 49.453 108.965 53.1164 107.005 57.0415C130.716 48.9296 156.693 50.8735 180.672 52.78Z" fill="#EFCA92"/>
<path d="M144.55 114.497C168.32 114.497 187.59 95.7526 187.59 72.6297C187.59 49.5068 168.32 30.762 144.55 30.762C120.78 30.762 101.51 49.5068 101.51 72.6297C101.51 95.7526 120.78 114.497 144.55 114.497Z" stroke="#413D51" stroke-width="16" stroke-miterlimit="10" stroke-linecap="round" stroke-linejoin="round"/>
<path d="M144.55 114.497C168.32 114.497 187.59 95.7526 187.59 72.6297C187.59 49.5068 168.32 30.762 144.55 30.762C120.78 30.762 101.51 49.5068 101.51 72.6297C101.51 95.7526 120.78 114.497 144.55 114.497Z" stroke="#413D51" stroke-width="16" stroke-miterlimit="10" stroke-linecap="round" stroke-linejoin="round"/>
<path d="M178.866 47.3596C177.675 45.8643 176.407 44.4064 174.985 43.0233C158.192 26.6874 130.946 26.6874 114.115 43.0233C110.771 46.2755 108.12 49.9016 106.122 53.7893C129.947 45.8643 154.887 45.2662 178.866 47.3596Z" fill="#413D51"/>
<path d="M123.606 91.4701C132.52 91.4701 139.746 84.4408 139.746 75.7698C139.746 67.0987 132.52 60.0694 123.606 60.0694C114.693 60.0694 107.467 67.0987 107.467 75.7698C107.467 84.4408 114.693 91.4701 123.606 91.4701Z" fill="#413D51"/>
<path d="M114.46 81.1153C117.432 81.1153 119.84 78.7723 119.84 75.8819C119.84 72.9915 117.432 70.6484 114.46 70.6484C111.489 70.6484 109.081 72.9915 109.081 75.8819C109.081 78.7723 111.489 81.1153 114.46 81.1153Z" fill="white"/>
<path d="M56.7028 30.8368L14.8928 29.6032C20.9261 44.2943 21.7331 66.3869 16.4684 90.5356C23.1549 104.292 37.3734 114.049 54.0897 114.535C77.8383 115.245 97.7058 97.0774 98.3975 73.9381C99.1276 50.8361 80.4515 31.5471 56.7028 30.8368Z" fill="#413D51"/>
<path d="M56.7028 30.8368L14.8928 29.6032C20.9261 44.2943 21.7331 66.3869 16.4684 90.5356C23.1549 104.292 37.3734 114.049 54.0897 114.535C77.8383 115.245 97.7058 97.0774 98.3975 73.9381C99.1276 50.8361 80.4515 31.5471 56.7028 30.8368Z" stroke="#413D51" stroke-width="16" stroke-miterlimit="10" stroke-linecap="round" stroke-linejoin="round"/>
<path d="M55.1657 114.497C78.9358 114.497 98.2053 95.7525 98.2053 72.6297C98.2053 49.5068 78.9358 30.7621 55.1657 30.7621C31.3955 30.7621 12.126 49.5068 12.126 72.6297C12.126 95.7525 31.3955 114.497 55.1657 114.497Z" fill="#F7E8AD"/>
<path d="M55.1657 114.497C78.9358 114.497 98.2053 95.7525 98.2053 72.6297C98.2053 49.5068 78.9358 30.7621 55.1657 30.7621C31.3955 30.7621 12.126 49.5068 12.126 72.6297C12.126 95.7525 31.3955 114.497 55.1657 114.497Z" fill="#F7E8AD"/>
<path d="M24.7302 43.0233C32.9923 34.9862 43.8291 30.9116 54.6658 30.7621C46.519 32.2947 38.7181 36.1076 32.4159 42.2756C15.6227 58.6115 15.6227 85.1152 32.4159 101.488C40.9469 109.787 52.168 113.862 63.3122 113.75C49.747 116.292 35.2211 112.441 24.7302 102.236C7.93705 85.8628 7.93705 59.3591 24.7302 43.0233Z" fill="#F7D6A1"/>
<path opacity="0.7" d="M88.255 94.8411C100.951 82.4909 101.024 62.5382 88.4181 50.2756C75.8122 38.013 55.301 38.084 42.605 50.4342C29.9091 62.7844 29.8361 82.7371 42.442 94.9997C55.0479 107.262 75.5591 107.191 88.255 94.8411Z" fill="white"/>
<path opacity="0.89" d="M19.0815 52.7799C20.2728 51.2847 22.5785 47.1727 24.0003 45.7895C40.9088 29.5658 68.1544 29.7154 84.8323 46.2007C88.1371 49.453 90.7887 53.1164 92.7485 57.0415C68.9998 48.9296 43.0223 50.8735 19.0815 52.7799Z" fill="#EFCA92"/>
<path d="M55.1657 114.497C78.9358 114.497 98.2053 95.7525 98.2053 72.6297C98.2053 49.5068 78.9358 30.7621 55.1657 30.7621C31.3955 30.7621 12.126 49.5068 12.126 72.6297C12.126 95.7525 31.3955 114.497 55.1657 114.497Z" stroke="#413D51" stroke-width="16" stroke-miterlimit="10" stroke-linecap="round" stroke-linejoin="round"/>
<path d="M55.1657 114.497C78.9358 114.497 98.2053 95.7525 98.2053 72.6297C98.2053 49.5068 78.9358 30.7621 55.1657 30.7621C31.3955 30.7621 12.126 49.5068 12.126 72.6297C12.126 95.7525 31.3955 114.497 55.1657 114.497Z" stroke="#413D51" stroke-width="16" stroke-miterlimit="10" stroke-linecap="round" stroke-linejoin="round"/>
<path d="M20.8876 47.3596C22.0789 45.8643 23.3471 44.4064 24.7689 43.0233C41.5621 26.6874 68.8077 26.6874 85.6393 43.0233C88.9825 46.2755 91.6341 49.9015 93.6324 53.7892C69.8068 45.8643 44.8285 45.2662 20.8876 47.3596Z" fill="#413D51"/>
<path d="M76.1475 91.4701C85.0613 91.4701 92.2874 84.4408 92.2874 75.7698C92.2874 67.0987 85.0613 60.0694 76.1475 60.0694C67.2337 60.0694 60.0076 67.0987 60.0076 75.7698C60.0076 84.4408 67.2337 91.4701 76.1475 91.4701Z" fill="#413D51"/>
<path d="M85.2934 81.1153C88.2647 81.1153 90.6734 78.7723 90.6734 75.8819C90.6734 72.9915 88.2647 70.6484 85.2934 70.6484C82.3222 70.6484 79.9135 72.9915 79.9135 75.8819C79.9135 78.7723 82.3222 81.1153 85.2934 81.1153Z" fill="white"/>
<path d="M79.4139 180.514C76.0322 180.514 73.2654 177.822 73.2654 174.533V167.804C73.2654 164.514 76.0322 161.823 79.4139 161.823C82.7956 161.823 85.5624 164.514 85.5624 167.804V174.533C85.5624 177.822 82.834 180.514 79.4139 180.514Z" fill="#413D51"/>
<path d="M67.1169 180.514C63.7352 180.514 60.9683 177.822 60.9683 174.533V167.804C60.9683 164.514 63.7352 161.823 67.1169 161.823C70.4985 161.823 73.2654 164.514 73.2654 167.804V174.533C73.2654 177.822 70.537 180.514 67.1169 180.514Z" fill="#413D51"/>
<path d="M91.6341 180.514C88.2524 180.514 85.4856 177.822 85.4856 174.533V167.804C85.4856 164.514 88.2524 161.823 91.6341 161.823C95.0158 161.823 97.7826 164.514 97.7826 167.804V174.533C97.7826 177.822 95.0158 180.514 91.6341 180.514Z" fill="#413D51"/>
<path d="M107.851 180.514C104.469 180.514 101.702 177.822 101.702 174.533V167.804C101.702 164.514 104.469 161.823 107.851 161.823C111.233 161.823 113.999 164.514 113.999 167.804V174.533C113.999 177.822 111.233 180.514 107.851 180.514Z" fill="#413D51"/>
<path d="M120.071 180.514C116.689 180.514 113.922 177.822 113.922 174.533V167.804C113.922 164.514 116.689 161.823 120.071 161.823C123.453 161.823 126.22 164.514 126.22 167.804V174.533C126.22 177.822 123.453 180.514 120.071 180.514Z" fill="#413D51"/>
<path d="M132.368 180.514C128.986 180.514 126.22 177.822 126.22 174.533V167.804C126.22 164.514 128.986 161.823 132.368 161.823C135.75 161.823 138.517 164.514 138.517 167.804V174.533C138.517 177.822 135.75 180.514 132.368 180.514Z" fill="#413D51"/>
<path d="M96.3223 131.656C96.3223 134.796 93.7092 137.338 90.4812 137.338C87.2533 137.338 84.6401 134.796 84.6401 131.656" stroke="#413D51" stroke-width="8" stroke-miterlimit="10" stroke-linecap="round" stroke-linejoin="round"/>
<path d="M114.192 131.656C114.192 134.796 111.578 137.338 108.35 137.338C105.122 137.338 102.509 134.796 102.509 131.656" stroke="#413D51" stroke-width="8" stroke-miterlimit="10" stroke-linecap="round" stroke-linejoin="round"/>
<path opacity="0.31" d="M31.417 117.151C30.5716 118.908 28.458 119.693 26.6135 118.871C24.7689 118.049 24.0003 115.993 24.8458 114.198" stroke="#72C8D6" stroke-width="8" stroke-miterlimit="10" stroke-linecap="round" stroke-linejoin="round"/>
<path opacity="0.31" d="M42.8686 122.946C42.0232 124.703 39.9096 125.488 38.0651 124.665C36.2589 123.843 35.452 121.787 36.2974 119.992" stroke="#72C8D6" stroke-width="8" stroke-miterlimit="10" stroke-linecap="round" stroke-linejoin="round"/>
<path opacity="0.31" d="M36.2205 127.394C35.3751 129.151 33.2615 129.936 31.417 129.114C29.6109 128.291 28.8039 126.235 29.6493 124.441" stroke="#72C8D6" stroke-width="8" stroke-miterlimit="10" stroke-linecap="round" stroke-linejoin="round"/>
<path opacity="0.31" d="M46.2887 134.833C45.4433 136.59 43.3297 137.375 41.4852 136.553C39.6791 135.73 38.8721 133.674 39.7175 131.88" stroke="#72C8D6" stroke-width="8" stroke-miterlimit="10" stroke-linecap="round" stroke-linejoin="round"/>
<path opacity="0.31" d="M53.9744 128.104C53.129 129.861 51.0154 130.646 49.1709 129.824C47.3647 129.001 46.5577 126.945 47.4032 125.151" stroke="#72C8D6" stroke-width="8" stroke-miterlimit="10" stroke-linecap="round" stroke-linejoin="round"/>
<path opacity="0.31" d="M170.028 117.899C170.873 119.656 172.987 120.441 174.831 119.619C176.676 118.796 177.444 116.74 176.599 114.946" stroke="#72C8D6" stroke-width="8" stroke-miterlimit="10" stroke-linecap="round" stroke-linejoin="round"/>
<path opacity="0.31" d="M158.615 123.693C159.46 125.45 161.574 126.235 163.418 125.413C165.224 124.59 166.031 122.534 165.186 120.74" stroke="#72C8D6" stroke-width="8" stroke-miterlimit="10" stroke-linecap="round" stroke-linejoin="round"/>
<path opacity="0.31" d="M165.224 128.142C166.07 129.899 168.183 130.684 170.028 129.861C171.834 129.039 172.641 126.983 171.795 125.189" stroke="#72C8D6" stroke-width="8" stroke-miterlimit="10" stroke-linecap="round" stroke-linejoin="round"/>
<path opacity="0.31" d="M155.194 135.581C156.04 137.338 158.153 138.123 159.998 137.3C161.804 136.478 162.611 134.422 161.766 132.628" stroke="#72C8D6" stroke-width="8" stroke-miterlimit="10" stroke-linecap="round" stroke-linejoin="round"/>
<path opacity="0.31" d="M147.509 128.852C148.354 130.609 150.468 131.394 152.312 130.571C154.118 129.749 154.925 127.693 154.08 125.899" stroke="#72C8D6" stroke-width="8" stroke-miterlimit="10" stroke-linecap="round" stroke-linejoin="round"/>
<path d="M87.407 145.3C87.407 148.44 84.7939 150.982 81.5659 150.982C78.3379 150.982 75.7248 148.44 75.7248 145.3" stroke="#413D51" stroke-width="8" stroke-miterlimit="10" stroke-linecap="round" stroke-linejoin="round"/>
<path d="M105.276 145.3C105.276 148.44 102.663 150.982 99.435 150.982C96.2071 150.982 93.5939 148.44 93.5939 145.3" stroke="#413D51" stroke-width="8" stroke-miterlimit="10" stroke-linecap="round" stroke-linejoin="round"/>
<path d="M123.145 145.3C123.145 148.44 120.532 150.982 117.304 150.982C114.076 150.982 111.463 148.44 111.463 145.3" stroke="#413D51" stroke-width="8" stroke-miterlimit="10" stroke-linecap="round" stroke-linejoin="round"/>
<path d="M206.211 26.3135H237.369C245.064 26.3135 251.292 28.6598 256.054 33.3525C260.85 38.0452 263.248 44.2217 263.248 51.8818C263.248 59.5075 260.781 65.6839 255.847 70.4111C250.912 75.1038 244.494 77.4502 236.593 77.4502H221.842V101H206.211V26.3135ZM221.842 38.6836V65.2354H233.177C237.662 65.2354 241.147 64.0794 243.632 61.7676C246.116 59.4557 247.358 56.1777 247.358 51.9336C247.358 47.6895 246.116 44.4287 243.632 42.1514C241.182 39.8395 237.714 38.6836 233.229 38.6836H221.842ZM271.633 101V44.0146H286.746V101H271.633ZM279.189 37.8037C276.947 37.8037 275.032 37.0446 273.444 35.5264C271.857 34.0081 271.063 32.1276 271.063 29.8848C271.063 27.6419 271.857 25.7786 273.444 24.2949C275.032 22.7767 276.947 22.0176 279.189 22.0176C281.467 22.0176 283.399 22.7767 284.986 24.2949C286.574 25.7786 287.367 27.6419 287.367 29.8848C287.367 32.1276 286.574 34.0081 284.986 35.5264C283.399 37.0446 281.467 37.8037 279.189 37.8037ZM348.752 65.0283H334.674C334.26 61.9919 333.035 59.5592 330.999 57.7305C328.963 55.8672 326.341 54.9355 323.132 54.9355C319.233 54.9355 316.145 56.5055 313.867 59.6455C311.59 62.751 310.451 67.0296 310.451 72.4814C310.451 78.0023 311.59 82.3154 313.867 85.4209C316.145 88.4919 319.25 90.0273 323.184 90.0273C326.393 90.0273 328.998 89.182 330.999 87.4912C333 85.8005 334.243 83.4023 334.726 80.2969H348.804C348.355 86.9219 345.802 92.2012 341.144 96.1348C336.52 100.034 330.481 101.983 323.028 101.983C314.471 101.983 307.674 99.3438 302.636 94.0645C297.632 88.7852 295.131 81.5908 295.131 72.4814C295.131 63.4756 297.632 56.3158 302.636 51.002C307.674 45.6882 314.437 43.0312 322.925 43.0312C330.447 43.0312 336.537 45.0843 341.195 49.1904C345.854 53.2965 348.372 58.5758 348.752 65.0283ZM364.797 35.4229C371.284 28.4873 380.065 25.0195 391.142 25.0195C402.218 25.0195 410.982 28.4873 417.435 35.4229C423.922 42.3584 427.165 51.7783 427.165 63.6826C427.165 75.5524 423.922 84.9551 417.435 91.8906C410.948 98.8262 402.183 102.294 391.142 102.294C380.065 102.294 371.284 98.8262 364.797 91.8906C358.344 84.9551 355.118 75.5524 355.118 63.6826C355.118 51.7783 358.344 42.3584 364.797 35.4229ZM405.737 44.998C402.114 40.3743 397.249 38.0625 391.142 38.0625C385.034 38.0625 380.152 40.3743 376.494 44.998C372.871 49.6217 371.06 55.8499 371.06 63.6826C371.06 71.4808 372.871 77.6917 376.494 82.3154C380.117 86.9046 385 89.1992 391.142 89.1992C397.249 89.1992 402.114 86.9046 405.737 82.3154C409.36 77.6917 411.172 71.4808 411.172 63.6826C411.172 55.8499 409.36 49.6217 405.737 44.998ZM515.619 44.0146L500.454 101H484.409L473.902 60.4219H473.592L463.188 101H447.299L432.082 44.0146H447.299L456.098 86.5596H456.408L466.708 44.0146H481.2L491.552 86.5596H491.862L500.713 44.0146H515.619ZM522.192 101V22.7422H537.306V101H522.192Z" fill="#413D51"/>
<path d="M299.502 130H298.808V117.317H299.502V130ZM316.702 120.534L313.942 130H313.143L310.497 121.422H310.479L307.834 130H307.034L304.274 120.534H304.995L307.43 129.235H307.456L310.102 120.534H310.875L313.52 129.235H313.547L315.981 120.534H316.702ZM317.906 130V120.534H318.592V130H317.906ZM318.636 118.056C318.53 118.161 318.401 118.214 318.249 118.214C318.097 118.214 317.968 118.161 317.862 118.056C317.757 117.95 317.704 117.824 317.704 117.678C317.704 117.525 317.757 117.396 317.862 117.291C317.968 117.186 318.097 117.133 318.249 117.133C318.401 117.133 318.53 117.186 318.636 117.291C318.747 117.396 318.803 117.525 318.803 117.678C318.803 117.824 318.747 117.95 318.636 118.056ZM320.859 130V116.764H321.545V130H320.859ZM323.812 130V116.764H324.498V130H323.812ZM330.334 130V116.764H331.02V122.617H331.046C331.269 121.949 331.676 121.416 332.268 121.018C332.859 120.613 333.551 120.411 334.342 120.411C335.385 120.411 336.226 120.73 336.864 121.369C337.509 122.008 337.831 122.852 337.831 123.9V130H337.154V123.979C337.154 123.071 336.885 122.354 336.346 121.826C335.807 121.299 335.092 121.035 334.201 121.035C333.264 121.035 332.499 121.346 331.907 121.967C331.315 122.588 331.02 123.394 331.02 124.384V130H330.334ZM346.673 128.805C345.899 129.684 344.88 130.123 343.614 130.123C342.349 130.123 341.329 129.684 340.556 128.805C339.788 127.926 339.404 126.748 339.404 125.271C339.404 123.789 339.788 122.608 340.556 121.729C341.329 120.851 342.349 120.411 343.614 120.411C344.886 120.411 345.905 120.851 346.673 121.729C347.446 122.608 347.833 123.789 347.833 125.271C347.833 126.748 347.446 127.926 346.673 128.805ZM341.048 128.365C341.692 129.127 342.548 129.508 343.614 129.508C344.681 129.508 345.533 129.127 346.172 128.365C346.816 127.598 347.139 126.566 347.139 125.271C347.139 123.971 346.819 122.939 346.181 122.178C345.542 121.416 344.686 121.035 343.614 121.035C342.542 121.035 341.686 121.416 341.048 122.178C340.409 122.939 340.09 123.971 340.09 125.271C340.09 126.572 340.409 127.604 341.048 128.365ZM356.253 128.805C355.479 129.684 354.46 130.123 353.194 130.123C351.929 130.123 350.909 129.684 350.136 128.805C349.368 127.926 348.984 126.748 348.984 125.271C348.984 123.789 349.368 122.608 350.136 121.729C350.909 120.851 351.929 120.411 353.194 120.411C354.466 120.411 355.485 120.851 356.253 121.729C357.026 122.608 357.413 123.789 357.413 125.271C357.413 126.748 357.026 127.926 356.253 128.805ZM350.628 128.365C351.272 129.127 352.128 129.508 353.194 129.508C354.261 129.508 355.113 129.127 355.752 128.365C356.396 127.598 356.719 126.566 356.719 125.271C356.719 123.971 356.399 122.939 355.761 122.178C355.122 121.416 354.267 121.035 353.194 121.035C352.122 121.035 351.267 121.416 350.628 122.178C349.989 122.939 349.67 123.971 349.67 125.271C349.67 126.572 349.989 127.604 350.628 128.365ZM359.566 118.1H360.243V120.534H362.212V121.132H360.243V127.829C360.243 128.392 360.352 128.796 360.568 129.042C360.785 129.288 361.134 129.411 361.614 129.411C362.06 129.411 362.3 129.405 362.335 129.394V130C362.265 130.012 361.995 130.018 361.526 130.018C360.835 130.018 360.334 129.851 360.023 129.517C359.719 129.177 359.566 128.62 359.566 127.847V121.132H358.178V120.534H359.566V118.1ZM367.986 118.1H368.663V120.534H370.632V121.132H368.663V127.829C368.663 128.392 368.771 128.796 368.988 129.042C369.205 129.288 369.554 129.411 370.034 129.411C370.479 129.411 370.72 129.405 370.755 129.394V130C370.685 130.012 370.415 130.018 369.946 130.018C369.255 130.018 368.754 129.851 368.443 129.517C368.139 129.177 367.986 128.62 367.986 127.847V121.132H366.598V120.534H367.986V118.1ZM372.398 130V116.764H373.084V122.617H373.11C373.333 121.949 373.74 121.416 374.332 121.018C374.924 120.613 375.615 120.411 376.406 120.411C377.449 120.411 378.29 120.73 378.929 121.369C379.573 122.008 379.895 122.852 379.895 123.9V130H379.219V123.979C379.219 123.071 378.949 122.354 378.41 121.826C377.871 121.299 377.156 121.035 376.266 121.035C375.328 121.035 374.563 121.346 373.972 121.967C373.38 122.588 373.084 123.394 373.084 124.384V130H372.398ZM385.608 121.026C384.624 121.026 383.818 121.372 383.191 122.063C382.564 122.755 382.225 123.666 382.172 124.797H388.966C388.96 123.678 388.646 122.77 388.025 122.072C387.41 121.375 386.604 121.026 385.608 121.026ZM388.852 127.354H389.546C389.388 128.169 388.96 128.834 388.263 129.35C387.571 129.865 386.713 130.123 385.687 130.123C384.393 130.123 383.364 129.695 382.603 128.84C381.847 127.979 381.469 126.792 381.469 125.28C381.469 123.815 381.847 122.638 382.603 121.747C383.364 120.856 384.369 120.411 385.617 120.411C386.836 120.411 387.814 120.83 388.553 121.668C389.291 122.5 389.66 123.604 389.66 124.981V125.377H382.163V125.412C382.163 126.689 382.482 127.691 383.121 128.418C383.76 129.145 384.618 129.508 385.696 129.508C386.54 129.508 387.24 129.309 387.797 128.91C388.359 128.512 388.711 127.993 388.852 127.354ZM399.056 120.411C400.245 120.411 401.209 120.862 401.947 121.765C402.691 122.661 403.063 123.83 403.063 125.271C403.063 126.713 402.694 127.882 401.956 128.778C401.218 129.675 400.254 130.123 399.064 130.123C398.209 130.123 397.462 129.877 396.823 129.385C396.19 128.893 395.769 128.266 395.558 127.504H395.531V133.032H394.846V120.534H395.487V123.065H395.514C395.73 122.298 396.161 121.665 396.806 121.167C397.456 120.663 398.206 120.411 399.056 120.411ZM398.977 129.508C399.984 129.508 400.802 129.118 401.429 128.339C402.056 127.554 402.369 126.531 402.369 125.271C402.369 124.012 402.056 122.992 401.429 122.213C400.802 121.428 399.984 121.035 398.977 121.035C397.963 121.035 397.134 121.428 396.489 122.213C395.851 122.998 395.531 124.018 395.531 125.271C395.531 126.52 395.851 127.539 396.489 128.33C397.134 129.115 397.963 129.508 398.977 129.508ZM404.777 130V120.534H405.463V130H404.777ZM405.507 118.056C405.401 118.161 405.272 118.214 405.12 118.214C404.968 118.214 404.839 118.161 404.733 118.056C404.628 117.95 404.575 117.824 404.575 117.678C404.575 117.525 404.628 117.396 404.733 117.291C404.839 117.186 404.968 117.133 405.12 117.133C405.272 117.133 405.401 117.186 405.507 117.291C405.618 117.396 405.674 117.525 405.674 117.678C405.674 117.824 405.618 117.95 405.507 118.056ZM415.113 123.382H414.436C414.296 122.69 413.944 122.128 413.382 121.694C412.825 121.255 412.143 121.035 411.334 121.035C410.273 121.035 409.427 121.419 408.794 122.187C408.167 122.948 407.853 123.977 407.853 125.271C407.853 126.566 408.167 127.598 408.794 128.365C409.427 129.127 410.276 129.508 411.343 129.508C412.145 129.508 412.825 129.3 413.382 128.884C413.938 128.468 414.287 127.917 414.428 127.231H415.113C414.967 128.093 414.551 128.79 413.865 129.323C413.18 129.856 412.339 130.123 411.343 130.123C410.071 130.123 409.058 129.687 408.302 128.813C407.546 127.94 407.168 126.76 407.168 125.271C407.168 123.789 407.546 122.608 408.302 121.729C409.058 120.851 410.068 120.411 411.334 120.411C412.33 120.411 413.171 120.692 413.856 121.255C414.548 121.817 414.967 122.526 415.113 123.382ZM416.458 122.96C416.458 122.216 416.769 121.606 417.39 121.132C418.017 120.651 418.79 120.411 419.71 120.411C420.659 120.411 421.436 120.672 422.039 121.193C422.648 121.709 422.991 122.397 423.067 123.259H422.399C422.329 122.585 422.054 122.043 421.573 121.633C421.099 121.217 420.475 121.009 419.701 121.009C418.986 121.009 418.377 121.19 417.873 121.554C417.375 121.911 417.126 122.371 417.126 122.934C417.126 123.391 417.284 123.754 417.601 124.023C417.923 124.293 418.427 124.51 419.112 124.674L420.58 125.034C421.523 125.263 422.197 125.567 422.602 125.948C423.012 126.329 423.217 126.845 423.217 127.495C423.217 128.274 422.889 128.907 422.232 129.394C421.576 129.88 420.738 130.123 419.719 130.123C418.717 130.123 417.885 129.856 417.223 129.323C416.561 128.79 416.203 128.125 416.15 127.328H416.836C416.9 127.961 417.199 128.488 417.732 128.91C418.271 129.326 418.939 129.534 419.736 129.534C420.539 129.534 421.207 129.35 421.74 128.98C422.273 128.611 422.54 128.131 422.54 127.539C422.54 127.047 422.373 126.654 422.039 126.361C421.705 126.062 421.151 125.822 420.378 125.641L418.857 125.271C418.043 125.078 417.439 124.797 417.047 124.428C416.654 124.053 416.458 123.563 416.458 122.96ZM428.824 130V121.132H427.506V120.534H428.824V119.189C428.824 117.725 429.521 116.992 430.916 116.992C431.203 116.992 431.435 117.019 431.61 117.071V117.669C431.417 117.616 431.197 117.59 430.951 117.59C430.482 117.59 430.125 117.719 429.879 117.977C429.633 118.234 429.51 118.653 429.51 119.233V120.534H431.54V121.132H429.51V130H428.824ZM433.078 130V120.534H433.72V122.406H433.746C433.934 121.762 434.244 121.27 434.678 120.93C435.117 120.584 435.653 120.411 436.286 120.411C436.597 120.411 436.884 120.464 437.147 120.569V121.255C436.89 121.126 436.567 121.062 436.181 121.062C435.448 121.062 434.862 121.346 434.423 121.914C433.983 122.482 433.764 123.218 433.764 124.12V130H433.078ZM444.565 128.805C443.792 129.684 442.772 130.123 441.507 130.123C440.241 130.123 439.222 129.684 438.448 128.805C437.681 127.926 437.297 126.748 437.297 125.271C437.297 123.789 437.681 122.608 438.448 121.729C439.222 120.851 440.241 120.411 441.507 120.411C442.778 120.411 443.798 120.851 444.565 121.729C445.339 122.608 445.726 123.789 445.726 125.271C445.726 126.748 445.339 127.926 444.565 128.805ZM438.94 128.365C439.585 129.127 440.44 129.508 441.507 129.508C442.573 129.508 443.426 129.127 444.064 128.365C444.709 127.598 445.031 126.566 445.031 125.271C445.031 123.971 444.712 122.939 444.073 122.178C443.435 121.416 442.579 121.035 441.507 121.035C440.435 121.035 439.579 121.416 438.94 122.178C438.302 122.939 437.982 123.971 437.982 125.271C437.982 126.572 438.302 127.604 438.94 128.365ZM447.352 130V120.534H447.993V122.617H448.02C448.201 121.961 448.541 121.431 449.039 121.026C449.537 120.616 450.146 120.411 450.867 120.411C451.594 120.411 452.212 120.625 452.722 121.053C453.231 121.475 453.562 122.011 453.715 122.661H453.732C453.908 122.022 454.266 121.489 454.805 121.062C455.35 120.628 455.994 120.411 456.738 120.411C457.652 120.411 458.385 120.704 458.936 121.29C459.492 121.876 459.77 122.658 459.77 123.637V130H459.085V123.786C459.085 122.931 458.862 122.26 458.417 121.773C457.978 121.281 457.368 121.035 456.589 121.035C455.792 121.035 455.145 121.322 454.646 121.896C454.148 122.471 453.899 123.218 453.899 124.138V130H453.223V123.76C453.223 122.945 452.991 122.289 452.528 121.791C452.065 121.287 451.471 121.035 450.744 121.035C449.941 121.035 449.288 121.34 448.784 121.949C448.286 122.559 448.037 123.364 448.037 124.366V130H447.352ZM472.778 120.534V130H472.145V127.935H472.119C471.908 128.579 471.492 129.106 470.871 129.517C470.25 129.921 469.55 130.123 468.77 130.123C467.739 130.123 466.907 129.812 466.274 129.191C465.647 128.564 465.334 127.727 465.334 126.678V120.534H466.02V126.572C466.02 127.492 466.28 128.213 466.802 128.734C467.329 129.25 468.032 129.508 468.911 129.508C469.831 129.508 470.593 129.203 471.196 128.594C471.8 127.984 472.102 127.185 472.102 126.194V120.534H472.778ZM474.879 130V120.534H475.52V122.617H475.547C475.77 121.949 476.174 121.416 476.76 121.018C477.352 120.613 478.046 120.411 478.843 120.411C479.892 120.411 480.735 120.728 481.374 121.36C482.013 121.987 482.332 122.831 482.332 123.892V130H481.646V123.971C481.646 123.062 481.377 122.348 480.838 121.826C480.299 121.299 479.584 121.035 478.693 121.035C477.768 121.035 477.015 121.346 476.435 121.967C475.854 122.582 475.564 123.382 475.564 124.366V130H474.879ZM484.151 122.96C484.151 122.216 484.462 121.606 485.083 121.132C485.71 120.651 486.483 120.411 487.403 120.411C488.353 120.411 489.129 120.672 489.732 121.193C490.342 121.709 490.685 122.397 490.761 123.259H490.093C490.022 122.585 489.747 122.043 489.267 121.633C488.792 121.217 488.168 121.009 487.395 121.009C486.68 121.009 486.07 121.19 485.566 121.554C485.068 121.911 484.819 122.371 484.819 122.934C484.819 123.391 484.978 123.754 485.294 124.023C485.616 124.293 486.12 124.51 486.806 124.674L488.273 125.034C489.217 125.263 489.891 125.567 490.295 125.948C490.705 126.329 490.91 126.845 490.91 127.495C490.91 128.274 490.582 128.907 489.926 129.394C489.27 129.88 488.432 130.123 487.412 130.123C486.41 130.123 485.578 129.856 484.916 129.323C484.254 128.79 483.896 128.125 483.844 127.328H484.529C484.594 127.961 484.893 128.488 485.426 128.91C485.965 129.326 486.633 129.534 487.43 129.534C488.232 129.534 488.9 129.35 489.434 128.98C489.967 128.611 490.233 128.131 490.233 127.539C490.233 127.047 490.066 126.654 489.732 126.361C489.398 126.062 488.845 125.822 488.071 125.641L486.551 125.271C485.736 125.078 485.133 124.797 484.74 124.428C484.348 124.053 484.151 123.563 484.151 122.96ZM496.702 120.411C497.892 120.411 498.855 120.862 499.594 121.765C500.338 122.661 500.71 123.83 500.71 125.271C500.71 126.713 500.341 127.882 499.603 128.778C498.864 129.675 497.9 130.123 496.711 130.123C495.855 130.123 495.108 129.877 494.47 129.385C493.837 128.893 493.415 128.266 493.204 127.504H493.178V133.032H492.492V120.534H493.134V123.065H493.16C493.377 122.298 493.808 121.665 494.452 121.167C495.103 120.663 495.853 120.411 496.702 120.411ZM496.623 129.508C497.631 129.508 498.448 129.118 499.075 128.339C499.702 127.554 500.016 126.531 500.016 125.271C500.016 124.012 499.702 122.992 499.075 122.213C498.448 121.428 497.631 121.035 496.623 121.035C495.609 121.035 494.78 121.428 494.136 122.213C493.497 122.998 493.178 124.018 493.178 125.271C493.178 126.52 493.497 127.539 494.136 128.33C494.78 129.115 495.609 129.508 496.623 129.508ZM502.424 130V116.764H503.109V130H502.424ZM508.225 129.517C509.168 129.517 509.971 129.224 510.633 128.638C511.295 128.046 511.626 127.331 511.626 126.493V125.078L508.471 125.315C507.562 125.38 506.871 125.594 506.396 125.957C505.922 126.32 505.685 126.818 505.685 127.451C505.685 128.055 505.922 128.55 506.396 128.937C506.877 129.323 507.486 129.517 508.225 129.517ZM508.137 130.123C507.211 130.123 506.455 129.877 505.869 129.385C505.289 128.887 504.999 128.242 504.999 127.451C504.999 126.643 505.283 126.01 505.852 125.553C506.426 125.096 507.27 124.826 508.383 124.744L511.626 124.507V123.663C511.626 122.837 511.386 122.192 510.905 121.729C510.431 121.267 509.769 121.035 508.919 121.035C508.116 121.035 507.46 121.231 506.95 121.624C506.44 122.017 506.13 122.57 506.019 123.285H505.359C505.441 122.412 505.808 121.715 506.458 121.193C507.108 120.672 507.932 120.411 508.928 120.411C509.965 120.411 510.785 120.698 511.389 121.272C511.998 121.847 512.303 122.629 512.303 123.619V130H511.644V127.961H511.626C511.392 128.605 510.952 129.127 510.308 129.525C509.663 129.924 508.939 130.123 508.137 130.123ZM514.122 122.96C514.122 122.216 514.433 121.606 515.054 121.132C515.681 120.651 516.454 120.411 517.374 120.411C518.323 120.411 519.1 120.672 519.703 121.193C520.312 121.709 520.655 122.397 520.731 123.259H520.063C519.993 122.585 519.718 122.043 519.237 121.633C518.763 121.217 518.139 121.009 517.365 121.009C516.65 121.009 516.041 121.19 515.537 121.554C515.039 121.911 514.79 122.371 514.79 122.934C514.79 123.391 514.948 123.754 515.265 124.023C515.587 124.293 516.091 124.51 516.776 124.674L518.244 125.034C519.187 125.263 519.861 125.567 520.266 125.948C520.676 126.329 520.881 126.845 520.881 127.495C520.881 128.274 520.553 128.907 519.896 129.394C519.24 129.88 518.402 130.123 517.383 130.123C516.381 130.123 515.549 129.856 514.887 129.323C514.225 128.79 513.867 128.125 513.814 127.328H514.5C514.564 127.961 514.863 128.488 515.396 128.91C515.936 129.326 516.603 129.534 517.4 129.534C518.203 129.534 518.871 129.35 519.404 128.98C519.937 128.611 520.204 128.131 520.204 127.539C520.204 127.047 520.037 126.654 519.703 126.361C519.369 126.062 518.815 125.822 518.042 125.641L516.521 125.271C515.707 125.078 515.103 124.797 514.711 124.428C514.318 124.053 514.122 123.563 514.122 122.96ZM522.551 130V116.764H523.236V122.617H523.263C523.485 121.949 523.893 121.416 524.484 121.018C525.076 120.613 525.768 120.411 526.559 120.411C527.602 120.411 528.442 120.73 529.081 121.369C529.726 122.008 530.048 122.852 530.048 123.9V130H529.371V123.979C529.371 123.071 529.102 122.354 528.562 121.826C528.023 121.299 527.309 121.035 526.418 121.035C525.48 121.035 524.716 121.346 524.124 121.967C523.532 122.588 523.236 123.394 523.236 124.384V130H522.551Z" fill="#413D51"/>
<defs>
<linearGradient id="paint0_linear" x1="538.806" y1="123.546" x2="162" y2="123.546" gradientUnits="userSpaceOnUse">
<stop stop-color="#86DBEE"/>
<stop offset="1" stop-color="#F7E8AD"/>
</linearGradient>
</defs>
</svg>
