<svg width="201" height="179" viewBox="0 0 201 179" fill="none" xmlns="http://www.w3.org/2000/svg">
<path d="M100.127 166.168C148.516 166.168 187.743 131.725 187.743 89.2364C187.743 46.7481 148.516 12.3046 100.127 12.3046C51.7375 12.3046 12.5103 46.7481 12.5103 89.2364C12.5103 131.725 51.7375 166.168 100.127 166.168Z" fill="#8FE3F9"/>
<path d="M100.127 166.168C148.516 166.168 187.743 131.725 187.743 89.2364C187.743 46.7481 148.516 12.3046 100.127 12.3046C51.7375 12.3046 12.5103 46.7481 12.5103 89.2364C12.5103 131.725 51.7375 166.168 100.127 166.168Z" fill="#8FE3F9"/>
<path d="M102.432 164.673C122.454 164.673 140.899 158.953 155.656 149.346L151.621 140.113C143.166 120.712 123.107 108.039 100.857 108.039C78.6069 108.039 58.5473 120.712 50.0931 140.113L46.7883 147.739C61.8906 158.318 81.2969 164.673 102.432 164.673Z" fill="#B2EBF9"/>
<path d="M100.088 82.8067L83.3336 106.731L95.9765 123.104C98.0516 125.796 102.24 125.796 104.315 123.104L116.843 106.731L100.088 82.8067Z" fill="#A4E0EA"/>
<path d="M100.127 157.197C53.4364 157.197 15.3155 125.16 12.664 84.7505C12.5487 86.2458 12.5103 87.7411 12.5103 89.2364C12.5103 131.702 51.7455 166.168 100.127 166.168C148.508 166.168 187.743 131.74 187.743 89.2364C187.743 87.7411 187.705 86.2458 187.589 84.7505C184.938 125.16 146.779 157.197 100.127 157.197Z" fill="#7AD1E5"/>
<path d="M152.697 141.795C138.055 151.44 119.84 157.197 100.127 157.197C80.9126 157.197 63.1587 151.776 48.7481 142.58L46.8267 147.178C61.9675 158.094 81.3353 164.673 102.471 164.673C121.57 164.673 139.247 159.29 153.657 150.169C154.349 149.72 155.002 149.234 155.694 148.748L152.697 141.795Z" fill="#A4E0EA"/>
<path d="M10.3583 89.498C12.8177 94.3951 16.1225 98.9556 20.2728 103.03C40.3708 122.581 72.9964 122.581 93.0944 103.03C109.926 86.657 112.654 61.7981 101.356 42.6586" fill="#7AD1E5"/>
<path d="M187.436 95.3296C178.213 108.824 162.457 117.684 144.55 117.684C116.113 117.684 93.0559 95.2548 93.0559 67.5923C93.0559 55.2563 97.6289 43.967 105.238 35.2196" fill="#7AD1E5"/>
<path d="M100.127 166.168C148.516 166.168 187.743 131.725 187.743 89.2364C187.743 46.7481 148.516 12.3046 100.127 12.3046C51.7375 12.3046 12.5103 46.7481 12.5103 89.2364C12.5103 131.725 51.7375 166.168 100.127 166.168Z" stroke="#413D51" stroke-width="16" stroke-miterlimit="10" stroke-linecap="round" stroke-linejoin="round"/>
<path d="M100.088 72.3398L83.3336 96.2642L100.165 118.058L116.881 96.2642L100.088 72.3398Z" fill="#413D51"/>
<path d="M100.088 72.3398L83.3336 96.2642L100.165 118.058L116.881 96.2642L100.088 72.3398Z" stroke="#413D51" stroke-width="16" stroke-miterlimit="10" stroke-linecap="round" stroke-linejoin="round"/>
<path d="M138.132 20.6034C126.604 15.3699 113.5 12.4167 99.704 12.4167C85.9083 12.4167 72.8042 15.3699 61.2758 20.6034V72.9753H138.132V20.6034Z" fill="#413D51"/>
<path d="M143.051 25.8368L184.823 24.6032C178.789 39.2943 177.982 61.3869 183.247 85.5356C176.561 99.2921 162.342 109.049 145.626 109.535C121.877 110.245 102.01 92.0774 101.318 68.9381C100.588 45.8361 119.264 26.5471 143.051 25.8368Z" fill="#413D51"/>
<path d="M143.051 25.8368L184.823 24.6032C178.789 39.2943 177.982 61.3869 183.247 85.5356C176.561 99.2921 162.342 109.049 145.626 109.535C121.877 110.245 102.01 92.0774 101.318 68.9381C100.588 45.8361 119.264 26.5471 143.051 25.8368Z" stroke="#413D51" stroke-width="16" stroke-miterlimit="10" stroke-linecap="round" stroke-linejoin="round"/>
<path d="M144.55 109.497C168.32 109.497 187.59 90.7526 187.59 67.6297C187.59 44.5068 168.32 25.762 144.55 25.762C120.78 25.762 101.51 44.5068 101.51 67.6297C101.51 90.7526 120.78 109.497 144.55 109.497Z" fill="#F7E8AD"/>
<path d="M144.55 109.497C168.32 109.497 187.59 90.7526 187.59 67.6297C187.59 44.5068 168.32 25.762 144.55 25.762C120.78 25.762 101.51 44.5068 101.51 67.6297C101.51 90.7526 120.78 109.497 144.55 109.497Z" fill="#F7E8AD"/>
<path d="M174.985 38.0233C166.723 29.9862 155.886 25.9116 145.049 25.762C153.196 27.2947 160.997 31.1076 167.299 37.2756C184.093 53.6115 184.093 80.1152 167.299 96.4884C158.768 104.787 147.547 108.862 136.403 108.75C149.968 111.292 164.494 107.441 174.985 97.2361C191.778 80.8628 191.778 54.3591 174.985 38.0233Z" fill="#F7D6A1"/>
<path opacity="0.7" d="M157.328 89.9746C169.943 77.7215 169.87 57.7843 157.165 45.4437C144.46 33.1031 123.933 33.0321 111.318 45.2852C98.7031 57.5383 98.7762 77.4755 111.481 89.8161C124.187 102.157 144.713 102.228 157.328 89.9746Z" fill="white"/>
<path d="M180.672 47.78C179.481 46.2847 177.175 42.1727 175.754 40.7896C158.845 24.5659 131.599 24.7154 114.922 41.2008C111.617 44.453 108.965 48.1164 107.005 52.0415C130.716 43.9296 156.693 45.8735 180.672 47.78Z" fill="#EFCA92"/>
<path d="M144.55 109.497C168.32 109.497 187.59 90.7526 187.59 67.6297C187.59 44.5068 168.32 25.762 144.55 25.762C120.78 25.762 101.51 44.5068 101.51 67.6297C101.51 90.7526 120.78 109.497 144.55 109.497Z" stroke="#413D51" stroke-width="16" stroke-miterlimit="10" stroke-linecap="round" stroke-linejoin="round"/>
<path d="M144.55 109.497C168.32 109.497 187.59 90.7526 187.59 67.6297C187.59 44.5068 168.32 25.762 144.55 25.762C120.78 25.762 101.51 44.5068 101.51 67.6297C101.51 90.7526 120.78 109.497 144.55 109.497Z" stroke="#413D51" stroke-width="16" stroke-miterlimit="10" stroke-linecap="round" stroke-linejoin="round"/>
<path d="M178.866 42.3596C177.675 40.8643 176.407 39.4064 174.985 38.0233C158.192 21.6874 130.946 21.6874 114.115 38.0233C110.771 41.2755 108.12 44.9016 106.122 48.7893C129.947 40.8643 154.887 40.2662 178.866 42.3596Z" fill="#413D51"/>
<path d="M123.606 86.4701C132.52 86.4701 139.746 79.4408 139.746 70.7698C139.746 62.0987 132.52 55.0694 123.606 55.0694C114.693 55.0694 107.467 62.0987 107.467 70.7698C107.467 79.4408 114.693 86.4701 123.606 86.4701Z" fill="#413D51"/>
<path d="M114.46 76.1153C117.432 76.1153 119.84 73.7723 119.84 70.8819C119.84 67.9915 117.432 65.6484 114.46 65.6484C111.489 65.6484 109.081 67.9915 109.081 70.8819C109.081 73.7723 111.489 76.1153 114.46 76.1153Z" fill="white"/>
<path d="M56.7028 25.8368L14.8928 24.6032C20.9261 39.2943 21.7331 61.3869 16.4684 85.5356C23.1549 99.2921 37.3734 109.049 54.0897 109.535C77.8383 110.245 97.7058 92.0774 98.3975 68.9381C99.1276 45.8361 80.4515 26.5471 56.7028 25.8368Z" fill="#413D51"/>
<path d="M56.7028 25.8368L14.8928 24.6032C20.9261 39.2943 21.7331 61.3869 16.4684 85.5356C23.1549 99.2921 37.3734 109.049 54.0897 109.535C77.8383 110.245 97.7058 92.0774 98.3975 68.9381C99.1276 45.8361 80.4515 26.5471 56.7028 25.8368Z" stroke="#413D51" stroke-width="16" stroke-miterlimit="10" stroke-linecap="round" stroke-linejoin="round"/>
<path d="M55.1657 109.497C78.9358 109.497 98.2053 90.7525 98.2053 67.6297C98.2053 44.5068 78.9358 25.7621 55.1657 25.7621C31.3955 25.7621 12.126 44.5068 12.126 67.6297C12.126 90.7525 31.3955 109.497 55.1657 109.497Z" fill="#F7E8AD"/>
<path d="M55.1657 109.497C78.9358 109.497 98.2053 90.7525 98.2053 67.6297C98.2053 44.5068 78.9358 25.7621 55.1657 25.7621C31.3955 25.7621 12.126 44.5068 12.126 67.6297C12.126 90.7525 31.3955 109.497 55.1657 109.497Z" fill="#F7E8AD"/>
<path d="M24.7302 38.0233C32.9923 29.9862 43.8291 25.9116 54.6658 25.7621C46.519 27.2947 38.7181 31.1076 32.4159 37.2756C15.6227 53.6115 15.6227 80.1152 32.4159 96.4884C40.9469 104.787 52.168 108.862 63.3122 108.75C49.747 111.292 35.2211 107.441 24.7302 97.2361C7.93705 80.8628 7.93705 54.3591 24.7302 38.0233Z" fill="#F7D6A1"/>
<path opacity="0.7" d="M88.255 89.8411C100.951 77.4909 101.024 57.5382 88.4181 45.2756C75.8122 33.013 55.301 33.084 42.605 45.4342C29.9091 57.7844 29.8361 77.7371 42.442 89.9997C55.0479 102.262 75.5591 102.191 88.255 89.8411Z" fill="white"/>
<path opacity="0.89" d="M19.0815 47.7799C20.2728 46.2847 22.5785 42.1727 24.0003 40.7895C40.9088 24.5658 68.1544 24.7154 84.8323 41.2007C88.1371 44.453 90.7887 48.1164 92.7485 52.0415C68.9998 43.9296 43.0223 45.8735 19.0815 47.7799Z" fill="#EFCA92"/>
<path d="M55.1657 109.497C78.9358 109.497 98.2053 90.7525 98.2053 67.6297C98.2053 44.5068 78.9358 25.7621 55.1657 25.7621C31.3955 25.7621 12.126 44.5068 12.126 67.6297C12.126 90.7525 31.3955 109.497 55.1657 109.497Z" stroke="#413D51" stroke-width="16" stroke-miterlimit="10" stroke-linecap="round" stroke-linejoin="round"/>
<path d="M55.1657 109.497C78.9358 109.497 98.2053 90.7525 98.2053 67.6297C98.2053 44.5068 78.9358 25.7621 55.1657 25.7621C31.3955 25.7621 12.126 44.5068 12.126 67.6297C12.126 90.7525 31.3955 109.497 55.1657 109.497Z" stroke="#413D51" stroke-width="16" stroke-miterlimit="10" stroke-linecap="round" stroke-linejoin="round"/>
<path d="M20.8876 42.3596C22.0789 40.8643 23.3471 39.4064 24.7689 38.0233C41.5621 21.6874 68.8077 21.6874 85.6393 38.0233C88.9825 41.2755 91.6341 44.9015 93.6324 48.7892C69.8068 40.8643 44.8285 40.2662 20.8876 42.3596Z" fill="#413D51"/>
<path d="M76.1475 86.4701C85.0613 86.4701 92.2874 79.4408 92.2874 70.7698C92.2874 62.0987 85.0613 55.0694 76.1475 55.0694C67.2337 55.0694 60.0076 62.0987 60.0076 70.7698C60.0076 79.4408 67.2337 86.4701 76.1475 86.4701Z" fill="#413D51"/>
<path d="M85.2934 76.1153C88.2647 76.1153 90.6734 73.7723 90.6734 70.8819C90.6734 67.9915 88.2647 65.6484 85.2934 65.6484C82.3222 65.6484 79.9135 67.9915 79.9135 70.8819C79.9135 73.7723 82.3222 76.1153 85.2934 76.1153Z" fill="white"/>
<path d="M79.4139 175.514C76.0322 175.514 73.2654 172.822 73.2654 169.533V162.804C73.2654 159.514 76.0322 156.823 79.4139 156.823C82.7956 156.823 85.5624 159.514 85.5624 162.804V169.533C85.5624 172.822 82.834 175.514 79.4139 175.514Z" fill="#413D51"/>
<path d="M67.1169 175.514C63.7352 175.514 60.9683 172.822 60.9683 169.533V162.804C60.9683 159.514 63.7352 156.823 67.1169 156.823C70.4985 156.823 73.2654 159.514 73.2654 162.804V169.533C73.2654 172.822 70.537 175.514 67.1169 175.514Z" fill="#413D51"/>
<path d="M91.6341 175.514C88.2524 175.514 85.4856 172.822 85.4856 169.533V162.804C85.4856 159.514 88.2524 156.823 91.6341 156.823C95.0158 156.823 97.7826 159.514 97.7826 162.804V169.533C97.7826 172.822 95.0158 175.514 91.6341 175.514Z" fill="#413D51"/>
<path d="M107.851 175.514C104.469 175.514 101.702 172.822 101.702 169.533V162.804C101.702 159.514 104.469 156.823 107.851 156.823C111.233 156.823 113.999 159.514 113.999 162.804V169.533C113.999 172.822 111.233 175.514 107.851 175.514Z" fill="#413D51"/>
<path d="M120.071 175.514C116.689 175.514 113.922 172.822 113.922 169.533V162.804C113.922 159.514 116.689 156.823 120.071 156.823C123.453 156.823 126.22 159.514 126.22 162.804V169.533C126.22 172.822 123.453 175.514 120.071 175.514Z" fill="#413D51"/>
<path d="M132.368 175.514C128.986 175.514 126.22 172.822 126.22 169.533V162.804C126.22 159.514 128.986 156.823 132.368 156.823C135.75 156.823 138.517 159.514 138.517 162.804V169.533C138.517 172.822 135.75 175.514 132.368 175.514Z" fill="#413D51"/>
<path d="M96.3223 126.656C96.3223 129.796 93.7092 132.338 90.4812 132.338C87.2533 132.338 84.6401 129.796 84.6401 126.656" stroke="#413D51" stroke-width="8" stroke-miterlimit="10" stroke-linecap="round" stroke-linejoin="round"/>
<path d="M114.192 126.656C114.192 129.796 111.578 132.338 108.35 132.338C105.122 132.338 102.509 129.796 102.509 126.656" stroke="#413D51" stroke-width="8" stroke-miterlimit="10" stroke-linecap="round" stroke-linejoin="round"/>
<path opacity="0.31" d="M31.417 112.151C30.5716 113.908 28.458 114.693 26.6135 113.871C24.7689 113.049 24.0003 110.993 24.8458 109.198" stroke="#72C8D6" stroke-width="8" stroke-miterlimit="10" stroke-linecap="round" stroke-linejoin="round"/>
<path opacity="0.31" d="M42.8686 117.946C42.0232 119.703 39.9096 120.488 38.0651 119.665C36.2589 118.843 35.452 116.787 36.2974 114.992" stroke="#72C8D6" stroke-width="8" stroke-miterlimit="10" stroke-linecap="round" stroke-linejoin="round"/>
<path opacity="0.31" d="M36.2205 122.394C35.3751 124.151 33.2615 124.936 31.417 124.114C29.6109 123.291 28.8039 121.235 29.6493 119.441" stroke="#72C8D6" stroke-width="8" stroke-miterlimit="10" stroke-linecap="round" stroke-linejoin="round"/>
<path opacity="0.31" d="M46.2887 129.833C45.4433 131.59 43.3297 132.375 41.4852 131.553C39.6791 130.73 38.8721 128.674 39.7175 126.88" stroke="#72C8D6" stroke-width="8" stroke-miterlimit="10" stroke-linecap="round" stroke-linejoin="round"/>
<path opacity="0.31" d="M53.9744 123.104C53.129 124.861 51.0154 125.646 49.1709 124.824C47.3647 124.001 46.5577 121.945 47.4032 120.151" stroke="#72C8D6" stroke-width="8" stroke-miterlimit="10" stroke-linecap="round" stroke-linejoin="round"/>
<path opacity="0.31" d="M170.028 112.899C170.873 114.656 172.987 115.441 174.831 114.619C176.676 113.796 177.444 111.74 176.599 109.946" stroke="#72C8D6" stroke-width="8" stroke-miterlimit="10" stroke-linecap="round" stroke-linejoin="round"/>
<path opacity="0.31" d="M158.615 118.693C159.46 120.45 161.574 121.235 163.418 120.413C165.224 119.59 166.031 117.534 165.186 115.74" stroke="#72C8D6" stroke-width="8" stroke-miterlimit="10" stroke-linecap="round" stroke-linejoin="round"/>
<path opacity="0.31" d="M165.224 123.142C166.07 124.899 168.183 125.684 170.028 124.861C171.834 124.039 172.641 121.983 171.795 120.189" stroke="#72C8D6" stroke-width="8" stroke-miterlimit="10" stroke-linecap="round" stroke-linejoin="round"/>
<path opacity="0.31" d="M155.194 130.581C156.04 132.338 158.153 133.123 159.998 132.3C161.804 131.478 162.611 129.422 161.766 127.628" stroke="#72C8D6" stroke-width="8" stroke-miterlimit="10" stroke-linecap="round" stroke-linejoin="round"/>
<path opacity="0.31" d="M147.509 123.852C148.354 125.609 150.468 126.394 152.312 125.571C154.118 124.749 154.925 122.693 154.08 120.899" stroke="#72C8D6" stroke-width="8" stroke-miterlimit="10" stroke-linecap="round" stroke-linejoin="round"/>
<path d="M87.407 140.3C87.407 143.44 84.7939 145.982 81.5659 145.982C78.3379 145.982 75.7248 143.44 75.7248 140.3" stroke="#413D51" stroke-width="8" stroke-miterlimit="10" stroke-linecap="round" stroke-linejoin="round"/>
<path d="M105.276 140.3C105.276 143.44 102.663 145.982 99.435 145.982C96.2071 145.982 93.5939 143.44 93.5939 140.3" stroke="#413D51" stroke-width="8" stroke-miterlimit="10" stroke-linecap="round" stroke-linejoin="round"/>
<path d="M123.145 140.3C123.145 143.44 120.532 145.982 117.304 145.982C114.076 145.982 111.463 143.44 111.463 140.3" stroke="#413D51" stroke-width="8" stroke-miterlimit="10" stroke-linecap="round" stroke-linejoin="round"/>
</svg>
