<svg width="30" height="30" viewBox="0 0 30 30" fill="none" xmlns="http://www.w3.org/2000/svg">
<path d="M24.375 12.6562C24.375 6.19453 19.118 0.9375 12.6562 0.9375C6.19453 0.9375 0.9375 6.19453 0.9375 12.6562C0.9375 19.118 6.19453 24.375 12.6562 24.375C19.118 24.375 24.375 19.118 24.375 12.6562ZM12.6562 23.4375C6.71156 23.4375 1.875 18.6009 1.875 12.6562C1.875 6.71156 6.71156 1.875 12.6562 1.875C18.6009 1.875 23.4375 6.71156 23.4375 12.6562C23.4375 18.6009 18.6009 23.4375 12.6562 23.4375Z" fill="#111111" fill-opacity="0.5"/>
<path d="M28.8445 26.8561L22.5426 20.5537C21.9553 21.2878 21.2883 21.9548 20.5542 22.5421L26.8561 28.8445C27.0394 29.0278 27.3361 29.0278 27.5189 28.8445L28.8445 27.5189C29.0278 27.3361 29.0278 27.0389 28.8445 26.8561Z" fill="#111111" fill-opacity="0.5"/>
</svg>
